<mxfile host="www.draw.io" modified="2019-10-26T11:01:54.404Z" agent="Mozilla/5.0 (X11; Linux x86_64) AppleWebKit/537.36 (KHTML, like Gecko) Chrome/78.0.3904.70 Safari/537.36" etag="A4BtF-OJKELUbxCBT26q" version="12.1.7" type="github" pages="1">
  <diagram id="NL3Gt1PZ4-QvTYmWhQju" name="第 1 页">
    <mxGraphModel dx="809" dy="482" grid="1" gridSize="10" guides="1" tooltips="1" connect="1" arrows="1" fold="1" page="1" pageScale="1" pageWidth="1600" pageHeight="900" math="0" shadow="0">
      <root>
        <mxCell id="0"/>
        <mxCell id="1" parent="0"/>
        <mxCell id="p2iApNeuUnW86oLl-AI1-78" value="" style="endArrow=classic;html=1;strokeColor=#858585;" parent="1" edge="1">
          <mxGeometry width="50" height="50" relative="1" as="geometry">
            <mxPoint x="321" y="515.5555555555555" as="sourcePoint"/>
            <mxPoint x="1171" y="515.5555555555555" as="targetPoint"/>
          </mxGeometry>
        </mxCell>
        <mxCell id="p2iApNeuUnW86oLl-AI1-79" value="" style="endArrow=none;html=1;strokeColor=#858585;endFill=0;" parent="1" edge="1">
          <mxGeometry width="50" height="50" relative="1" as="geometry">
            <mxPoint x="321" y="515.5555555555555" as="sourcePoint"/>
            <mxPoint x="321" y="100" as="targetPoint"/>
          </mxGeometry>
        </mxCell>
        <mxCell id="p2iApNeuUnW86oLl-AI1-81" value="注册" style="ellipse;whiteSpace=wrap;html=1;aspect=fixed;fillColor=#d5e8d4;strokeColor=#82b366;gradientColor=#ffffff;gradientDirection=west;" parent="1" vertex="1">
          <mxGeometry x="371" y="326.1111111111111" width="67.08333333333334" height="67.08333333333334" as="geometry"/>
        </mxCell>
        <mxCell id="p2iApNeuUnW86oLl-AI1-84" value="登录" style="ellipse;whiteSpace=wrap;html=1;aspect=fixed;fillColor=#dae8fc;strokeColor=#6c8ebf;gradientColor=#ffffff;gradientDirection=north;" parent="1" vertex="1">
          <mxGeometry x="463" y="258.8888888888889" width="67.08333333333334" height="67.08333333333334" as="geometry"/>
        </mxCell>
        <mxCell id="p2iApNeuUnW86oLl-AI1-85" style="edgeStyle=orthogonalEdgeStyle;curved=1;rounded=0;orthogonalLoop=1;jettySize=auto;html=1;entryX=0.5;entryY=1;entryDx=0;entryDy=0;endArrow=classic;endFill=1;strokeColor=#10739e;fontColor=#858585;comic=1;targetPerimeterSpacing=0;strokeWidth=3;fillColor=#b1ddf0;" parent="1" source="p2iApNeuUnW86oLl-AI1-81" target="p2iApNeuUnW86oLl-AI1-84" edge="1">
          <mxGeometry relative="1" as="geometry"/>
        </mxCell>
        <mxCell id="p2iApNeuUnW86oLl-AI1-86" value="申请授信" style="ellipse;whiteSpace=wrap;html=1;aspect=fixed;fillColor=#f8cecc;strokeColor=#b85450;gradientColor=#ffffff;" parent="1" vertex="1">
          <mxGeometry x="554" y="326.1111111111111" width="67.08333333333334" height="67.08333333333334" as="geometry"/>
        </mxCell>
        <mxCell id="p2iApNeuUnW86oLl-AI1-87" style="edgeStyle=orthogonalEdgeStyle;curved=1;rounded=0;orthogonalLoop=1;jettySize=auto;html=1;entryX=0.5;entryY=0;entryDx=0;entryDy=0;endArrow=classic;endFill=1;strokeColor=#10739e;fontColor=#858585;comic=1;strokeWidth=3;fillColor=#b1ddf0;targetPerimeterSpacing=0;" parent="1" source="p2iApNeuUnW86oLl-AI1-84" target="p2iApNeuUnW86oLl-AI1-86" edge="1">
          <mxGeometry relative="1" as="geometry"/>
        </mxCell>
        <mxCell id="p2iApNeuUnW86oLl-AI1-90" value="申请借款" style="ellipse;whiteSpace=wrap;html=1;aspect=fixed;fillColor=#ffe6cc;strokeColor=#d79b00;gradientColor=#ffffff;gradientDirection=west;" parent="1" vertex="1">
          <mxGeometry x="646" y="258.8888888888889" width="67.08333333333334" height="67.08333333333334" as="geometry"/>
        </mxCell>
        <mxCell id="p2iApNeuUnW86oLl-AI1-91" style="edgeStyle=orthogonalEdgeStyle;curved=1;rounded=0;orthogonalLoop=1;jettySize=auto;html=1;entryX=0.5;entryY=1;entryDx=0;entryDy=0;endArrow=classic;endFill=1;strokeColor=#10739e;fontColor=#858585;strokeWidth=3;fillColor=#b1ddf0;targetPerimeterSpacing=0;" parent="1" source="p2iApNeuUnW86oLl-AI1-86" target="p2iApNeuUnW86oLl-AI1-90" edge="1">
          <mxGeometry relative="1" as="geometry"/>
        </mxCell>
        <mxCell id="p2iApNeuUnW86oLl-AI1-94" value="资金放款" style="ellipse;whiteSpace=wrap;html=1;aspect=fixed;fillColor=#f5f5f5;strokeColor=#666666;gradientDirection=north;gradientColor=#b3b3b3;opacity=50;" parent="1" vertex="1">
          <mxGeometry x="738" y="326.1111111111111" width="67.08333333333334" height="67.08333333333334" as="geometry"/>
        </mxCell>
        <mxCell id="p2iApNeuUnW86oLl-AI1-95" style="edgeStyle=orthogonalEdgeStyle;curved=1;rounded=0;orthogonalLoop=1;jettySize=auto;html=1;entryX=0.5;entryY=0;entryDx=0;entryDy=0;endArrow=classic;endFill=1;strokeColor=#666666;fontColor=#858585;strokeWidth=3;fillColor=#f5f5f5;targetPerimeterSpacing=0;opacity=50;gradientColor=#b3b3b3;" parent="1" source="p2iApNeuUnW86oLl-AI1-90" target="p2iApNeuUnW86oLl-AI1-94" edge="1">
          <mxGeometry relative="1" as="geometry">
            <Array as="points">
              <mxPoint x="773" y="301.66666666666663"/>
            </Array>
          </mxGeometry>
        </mxCell>
        <mxCell id="p2iApNeuUnW86oLl-AI1-98" value="还款" style="ellipse;whiteSpace=wrap;html=1;aspect=fixed;fillColor=#f5f5f5;strokeColor=#666666;gradientDirection=north;gradientColor=#b3b3b3;opacity=50;" parent="1" vertex="1">
          <mxGeometry x="829" y="258.8888888888889" width="67.08333333333334" height="67.08333333333334" as="geometry"/>
        </mxCell>
        <mxCell id="p2iApNeuUnW86oLl-AI1-99" style="edgeStyle=orthogonalEdgeStyle;curved=1;rounded=0;orthogonalLoop=1;jettySize=auto;html=1;exitX=1;exitY=0.5;exitDx=0;exitDy=0;entryX=0.5;entryY=1;entryDx=0;entryDy=0;endArrow=classic;endFill=1;strokeColor=#666666;fontColor=#858585;strokeWidth=3;fillColor=#f5f5f5;targetPerimeterSpacing=0;gradientColor=#b3b3b3;opacity=50;" parent="1" source="p2iApNeuUnW86oLl-AI1-94" target="p2iApNeuUnW86oLl-AI1-98" edge="1">
          <mxGeometry relative="1" as="geometry"/>
        </mxCell>
        <mxCell id="p2iApNeuUnW86oLl-AI1-102" value="逾期" style="ellipse;whiteSpace=wrap;html=1;aspect=fixed;fillColor=#f5f5f5;strokeColor=#666666;gradientDirection=south;gradientColor=#b3b3b3;opacity=50;" parent="1" vertex="1">
          <mxGeometry x="921" y="326.1111111111111" width="67.08333333333334" height="67.08333333333334" as="geometry"/>
        </mxCell>
        <mxCell id="p2iApNeuUnW86oLl-AI1-103" style="edgeStyle=orthogonalEdgeStyle;curved=1;rounded=0;orthogonalLoop=1;jettySize=auto;html=1;entryX=0.5;entryY=0;entryDx=0;entryDy=0;endArrow=classic;endFill=1;strokeColor=#666666;fontColor=#858585;strokeWidth=3;fillColor=#f5f5f5;targetPerimeterSpacing=0;gradientColor=#b3b3b3;opacity=60;" parent="1" source="p2iApNeuUnW86oLl-AI1-98" target="p2iApNeuUnW86oLl-AI1-102" edge="1">
          <mxGeometry relative="1" as="geometry"/>
        </mxCell>
        <mxCell id="p2iApNeuUnW86oLl-AI1-152" value="" style="endArrow=none;html=1;strokeColor=#858585;endFill=0;" parent="1" edge="1">
          <mxGeometry width="50" height="50" relative="1" as="geometry">
            <mxPoint x="400" y="525" as="sourcePoint"/>
            <mxPoint x="400" y="515" as="targetPoint"/>
          </mxGeometry>
        </mxCell>
        <mxCell id="p2iApNeuUnW86oLl-AI1-153" value="" style="endArrow=none;html=1;strokeColor=#858585;endFill=0;" parent="1" source="p2iApNeuUnW86oLl-AI1-180" edge="1">
          <mxGeometry width="50" height="50" relative="1" as="geometry">
            <mxPoint x="481" y="527" as="sourcePoint"/>
            <mxPoint x="481" y="517" as="targetPoint"/>
          </mxGeometry>
        </mxCell>
        <mxCell id="p2iApNeuUnW86oLl-AI1-154" value="" style="endArrow=none;html=1;strokeColor=#858585;endFill=0;" parent="1" edge="1">
          <mxGeometry width="50" height="50" relative="1" as="geometry">
            <mxPoint x="560.5" y="527" as="sourcePoint"/>
            <mxPoint x="560.5" y="517" as="targetPoint"/>
          </mxGeometry>
        </mxCell>
        <mxCell id="p2iApNeuUnW86oLl-AI1-155" value="" style="endArrow=none;html=1;strokeColor=#858585;endFill=0;" parent="1" edge="1">
          <mxGeometry width="50" height="50" relative="1" as="geometry">
            <mxPoint x="640" y="528" as="sourcePoint"/>
            <mxPoint x="640" y="518" as="targetPoint"/>
          </mxGeometry>
        </mxCell>
        <mxCell id="p2iApNeuUnW86oLl-AI1-156" value="" style="endArrow=none;html=1;strokeColor=#858585;endFill=0;" parent="1" edge="1">
          <mxGeometry width="50" height="50" relative="1" as="geometry">
            <mxPoint x="719.5" y="529" as="sourcePoint"/>
            <mxPoint x="719.5" y="519" as="targetPoint"/>
          </mxGeometry>
        </mxCell>
        <mxCell id="p2iApNeuUnW86oLl-AI1-157" value="" style="endArrow=none;html=1;strokeColor=#858585;endFill=0;" parent="1" edge="1">
          <mxGeometry width="50" height="50" relative="1" as="geometry">
            <mxPoint x="799" y="529" as="sourcePoint"/>
            <mxPoint x="799" y="519" as="targetPoint"/>
          </mxGeometry>
        </mxCell>
        <mxCell id="p2iApNeuUnW86oLl-AI1-158" value="" style="endArrow=none;html=1;strokeColor=#858585;endFill=0;" parent="1" edge="1">
          <mxGeometry width="50" height="50" relative="1" as="geometry">
            <mxPoint x="879.5" y="529" as="sourcePoint"/>
            <mxPoint x="879.5" y="519" as="targetPoint"/>
          </mxGeometry>
        </mxCell>
        <mxCell id="p2iApNeuUnW86oLl-AI1-159" value="" style="endArrow=none;html=1;strokeColor=#858585;endFill=0;" parent="1" edge="1">
          <mxGeometry width="50" height="50" relative="1" as="geometry">
            <mxPoint x="960.5" y="529" as="sourcePoint"/>
            <mxPoint x="960.5" y="519" as="targetPoint"/>
          </mxGeometry>
        </mxCell>
        <mxCell id="p2iApNeuUnW86oLl-AI1-160" value="" style="endArrow=none;html=1;strokeColor=#858585;endFill=0;" parent="1" edge="1">
          <mxGeometry width="50" height="50" relative="1" as="geometry">
            <mxPoint x="1040" y="529" as="sourcePoint"/>
            <mxPoint x="1040" y="519" as="targetPoint"/>
          </mxGeometry>
        </mxCell>
        <mxCell id="p2iApNeuUnW86oLl-AI1-161" value="" style="endArrow=none;html=1;strokeColor=#858585;endFill=0;" parent="1" edge="1">
          <mxGeometry width="50" height="50" relative="1" as="geometry">
            <mxPoint x="1120" y="529" as="sourcePoint"/>
            <mxPoint x="1120" y="519" as="targetPoint"/>
          </mxGeometry>
        </mxCell>
        <mxCell id="p2iApNeuUnW86oLl-AI1-169" value="2019-10-20" style="text;html=1;strokeColor=none;fillColor=none;align=center;verticalAlign=middle;whiteSpace=wrap;rounded=0;fontSize=10;" parent="1" vertex="1">
          <mxGeometry x="1083" y="529" width="71" height="10" as="geometry"/>
        </mxCell>
        <mxCell id="p2iApNeuUnW86oLl-AI1-176" value="2019-10-19" style="text;html=1;strokeColor=none;fillColor=none;align=center;verticalAlign=middle;whiteSpace=wrap;rounded=0;fontSize=10;" parent="1" vertex="1">
          <mxGeometry x="1008.5" y="529" width="71" height="10" as="geometry"/>
        </mxCell>
        <mxCell id="p2iApNeuUnW86oLl-AI1-175" value="2019-10-18" style="text;html=1;strokeColor=none;fillColor=none;align=center;verticalAlign=middle;whiteSpace=wrap;rounded=0;fontSize=10;" parent="1" vertex="1">
          <mxGeometry x="928" y="529" width="71" height="10" as="geometry"/>
        </mxCell>
        <mxCell id="p2iApNeuUnW86oLl-AI1-174" value="2019-10-17" style="text;html=1;strokeColor=none;fillColor=none;align=center;verticalAlign=middle;whiteSpace=wrap;rounded=0;fontSize=10;" parent="1" vertex="1">
          <mxGeometry x="841.5" y="529" width="71" height="10" as="geometry"/>
        </mxCell>
        <mxCell id="p2iApNeuUnW86oLl-AI1-173" value="2019-10-16" style="text;html=1;strokeColor=none;fillColor=none;align=center;verticalAlign=middle;whiteSpace=wrap;rounded=0;fontSize=10;" parent="1" vertex="1">
          <mxGeometry x="764" y="529" width="71" height="10" as="geometry"/>
        </mxCell>
        <mxCell id="p2iApNeuUnW86oLl-AI1-172" value="2019-10-15" style="text;html=1;strokeColor=none;fillColor=none;align=center;verticalAlign=middle;whiteSpace=wrap;rounded=0;fontSize=10;" parent="1" vertex="1">
          <mxGeometry x="680.5" y="529" width="71" height="10" as="geometry"/>
        </mxCell>
        <mxCell id="p2iApNeuUnW86oLl-AI1-171" value="2019-10-14" style="text;html=1;strokeColor=none;fillColor=none;align=center;verticalAlign=middle;whiteSpace=wrap;rounded=0;fontSize=10;" parent="1" vertex="1">
          <mxGeometry x="599" y="529" width="71" height="10" as="geometry"/>
        </mxCell>
        <mxCell id="p2iApNeuUnW86oLl-AI1-170" value="2019-10-13" style="text;html=1;strokeColor=none;fillColor=none;align=center;verticalAlign=middle;whiteSpace=wrap;rounded=0;fontSize=10;" parent="1" vertex="1">
          <mxGeometry x="518" y="529" width="71" height="10" as="geometry"/>
        </mxCell>
        <mxCell id="p2iApNeuUnW86oLl-AI1-180" value="2019-10-12" style="text;html=1;strokeColor=none;fillColor=none;align=center;verticalAlign=middle;whiteSpace=wrap;rounded=0;fontSize=10;" parent="1" vertex="1">
          <mxGeometry x="443" y="526" width="71" height="10" as="geometry"/>
        </mxCell>
        <mxCell id="p2iApNeuUnW86oLl-AI1-182" value="2019-10-11" style="text;html=1;strokeColor=none;fillColor=none;align=center;verticalAlign=middle;whiteSpace=wrap;rounded=0;fontSize=10;" parent="1" vertex="1">
          <mxGeometry x="358" y="526" width="71" height="10" as="geometry"/>
        </mxCell>
        <mxCell id="p2iApNeuUnW86oLl-AI1-185" value="注册" style="text;html=1;strokeColor=none;fillColor=none;align=center;verticalAlign=middle;whiteSpace=wrap;rounded=0;fontSize=10;" parent="1" vertex="1">
          <mxGeometry x="381" y="550" width="40" height="20" as="geometry"/>
        </mxCell>
        <mxCell id="p2iApNeuUnW86oLl-AI1-187" value="申请授信" style="text;html=1;strokeColor=none;fillColor=none;align=center;verticalAlign=middle;whiteSpace=wrap;rounded=0;fontSize=10;" parent="1" vertex="1">
          <mxGeometry x="533" y="550" width="56" height="20" as="geometry"/>
        </mxCell>
        <mxCell id="p2iApNeuUnW86oLl-AI1-286" value="申请借款" style="text;html=1;strokeColor=none;fillColor=none;align=center;verticalAlign=middle;whiteSpace=wrap;rounded=0;fontSize=10;" parent="1" vertex="1">
          <mxGeometry x="614" y="550" width="56" height="20" as="geometry"/>
        </mxCell>
        <mxCell id="p2iApNeuUnW86oLl-AI1-288" value="放款成功" style="text;html=1;strokeColor=none;fillColor=none;align=center;verticalAlign=middle;whiteSpace=wrap;rounded=0;fontSize=10;" parent="1" vertex="1">
          <mxGeometry x="691.5" y="550" width="56" height="20" as="geometry"/>
        </mxCell>
        <mxCell id="p2iApNeuUnW86oLl-AI1-290" value="第一次还款" style="text;html=1;strokeColor=none;fillColor=none;align=center;verticalAlign=middle;whiteSpace=wrap;rounded=0;fontSize=10;" parent="1" vertex="1">
          <mxGeometry x="852" y="550" width="56" height="20" as="geometry"/>
        </mxCell>
        <mxCell id="p2iApNeuUnW86oLl-AI1-294" value="当前逾期" style="text;html=1;strokeColor=none;fillColor=none;align=center;verticalAlign=middle;whiteSpace=wrap;rounded=0;fontSize=10;" parent="1" vertex="1">
          <mxGeometry x="938.5" y="550" width="56" height="20" as="geometry"/>
        </mxCell>
        <mxCell id="p2iApNeuUnW86oLl-AI1-300" value="" style="shape=mxgraph.signs.people.man_1;html=1;pointerEvents=1;fillColor=#000000;strokeColor=none;verticalLabelPosition=bottom;verticalAlign=top;align=center;fontSize=16;" parent="1" vertex="1">
          <mxGeometry x="337" y="109" width="21" height="49" as="geometry"/>
        </mxCell>
      </root>
    </mxGraphModel>
  </diagram>
</mxfile>
